{"asset":{"version":"2.0","generator":"VECTARY"},"nodes":[{"translation":[-4.2304721462826935e-7,-0.00022617347387079433,-0.03363521072834649],"scale":[0.001,0.001,0.001],"rotation":[-0.7071067811865475,0,0,0.7071067811865476],"name":"Group - baked","children":[1,2,3,4,5,6,7,8,9,10,11,12]},{"translation":[0.00042304721462826933,-11.663015578194653,0.22617347387080144],"scale":[0.30000374868723956,0.18003224958721245,0.18003224958721245],"rotation":[0,0,0,1],"name":"Box 4","mesh":0},{"translation":[0.00042304721462826933,3.762223065541292,32.24162302677226],"scale":[0.25666704773902893,0.2570431228097269,0.25656501590866543],"rotation":[-0.1884652814760913,0,0,0.9820798530049059],"name":"Box 2 - baked","mesh":1},{"translation":[0.00042304721462826933,21.789890591641594,0],"scale":[0.2566670601687917,0.25704312912141997,0.25656501583731367],"rotation":[0,0,0,1],"name":"Box","mesh":2},{"translation":[0.0004230532475357762,-2.8236506884181978,27.041254772788292],"scale":[0.3749566078186035,0.3749566078186035,0.3749566078186035],"rotation":[0,0,0,1],"name":"Box - baked","mesh":3},{"translation":[0.00042304721462826933,-44.709235893523484,46.83058283136153],"scale":[1.011433919960682,1.011433919960682,1.0114339199606817],"rotation":[0,0,0.9999999998397284,-0.000017903720975091658],"name":"Merged Objects 5","mesh":4},{"translation":[0.00042304721462826933,-44.84671665148848,29.958397034216258],"scale":[1.011433919960682,1.011433919960682,1.0114339199606817],"rotation":[0,0,0.9999999998397284,-0.000017903720975091658],"name":"Merged Objects 4","mesh":5},{"translation":[0.00042304721462826933,-44.98259257065597,12.724664398560748],"scale":[1.011433919960682,1.011433919960682,1.0114339199606817],"rotation":[0,0,0.9999999998397284,-0.000017903720975091658],"name":"Merged Objects 3","mesh":6},{"translation":[0.00042304721462826933,44.92625177690755,47.51462756093057],"scale":[1,0.9938393583633618,1],"rotation":[-0.007446676350300902,0,0,0.9999722731212771],"name":"Merged Objects 2","mesh":7},{"translation":[0.00042304721462826933,44.543390276866376,23.33951034759601],"scale":[1,0.9999999999999999,0.9999999999999999],"rotation":[-0.004971994269171957,0,0,0.9999876395601034],"name":"Merged Objects 1","mesh":8},{"translation":[0.00042304721462826933,44.823520571224606,-0.07587044092412043],"scale":[1,1,1],"rotation":[-0.0034696322419922442,0,0,0.9999939808079373],"name":"Merged Objects","mesh":9},{"translation":[0.00042304721462826933,-2.8504894730156636,12.64782066778875],"scale":[1,1,1],"rotation":[0,0,0,1],"name":"Box 1","mesh":10},{"translation":[8.973513159239946,-2.8349233676873666,39.111617345210114],"scale":[0.12484568246164145,0.3545005361644902,0.3545005361644902],"rotation":[0,0,0,1],"name":"Box 5 - baked","mesh":11}],"materials":[{"pbrMetallicRoughness":{"baseColorFactor":[0.7969165429079781,0,0,1],"baseColorTexture":{"index":0,"extensions":{"KHR_texture_transform":{"offset":[0,0],"scale":[1,1],"rotation":0}},"texCoord":0},"metallicFactor":0,"roughnessFactor":0.2},"name":"Country Breeze","emissiveFactor":[0,0,0],"extensions":{},"alphaMode":"OPAQUE","doubleSided":false},{"pbrMetallicRoughness":{"baseColorFactor":[0.7969165429079781,0,0,1],"baseColorTexture":{"index":1,"extensions":{"KHR_texture_transform":{"offset":[0,0],"scale":[1,1],"rotation":0}},"texCoord":0},"metallicFactor":0,"roughnessFactor":0.2},"name":"Falling Star 1","emissiveFactor":[0,0,0],"extensions":{},"alphaMode":"OPAQUE","doubleSided":false},{"pbrMetallicRoughness":{"baseColorFactor":[0.7969165429079781,0,0,1],"baseColorTexture":{"index":1,"extensions":{"KHR_texture_transform":{"offset":[0,0],"scale":[1,1],"rotation":0}},"texCoord":0},"metallicFactor":0,"roughnessFactor":0.2},"name":"Falling Star","emissiveFactor":[0,0,0],"extensions":{},"alphaMode":"OPAQUE","doubleSided":false},{"pbrMetallicRoughness":{"baseColorFactor":[0.7969165429079781,0,0,1],"baseColorTexture":{"index":2,"extensions":{"KHR_texture_transform":{"offset":[0,0],"scale":[1,1],"rotation":0}},"texCoord":0},"metallicFactor":0,"roughnessFactor":0.2},"name":"Urban Charm","emissiveFactor":[0,0,0],"extensions":{},"alphaMode":"OPAQUE","doubleSided":false},{"pbrMetallicRoughness":{"baseColorFactor":[0.7969165429079781,0,0,1],"baseColorTexture":{"index":3,"extensions":{"KHR_texture_transform":{"offset":[0,0],"scale":[1,1],"rotation":0}},"texCoord":0},"metallicFactor":0,"roughnessFactor":0.2},"name":"Keira","emissiveFactor":[0,0,0],"extensions":{},"alphaMode":"OPAQUE","doubleSided":false},{"pbrMetallicRoughness":{"baseColorFactor":[0.7969165429079781,0,0,1],"baseColorTexture":{"index":4,"extensions":{"KHR_texture_transform":{"offset":[0,0],"scale":[1,1],"rotation":0}},"texCoord":0},"metallicFactor":0,"roughnessFactor":0.2},"name":"Cologne","emissiveFactor":[0,0,0],"extensions":{},"alphaMode":"OPAQUE","doubleSided":false},{"pbrMetallicRoughness":{"baseColorFactor":[0.7969165429079781,0,0,1],"baseColorTexture":{"index":5,"extensions":{"KHR_texture_transform":{"offset":[0,0],"scale":[1,1],"rotation":0}},"texCoord":0},"metallicFactor":0,"roughnessFactor":0.2},"name":"Tsunami","emissiveFactor":[0,0,0],"extensions":{},"alphaMode":"OPAQUE","doubleSided":false},{"pbrMetallicRoughness":{"baseColorFactor":[0.7969165429079781,0,0,1],"baseColorTexture":{"index":6,"extensions":{"KHR_texture_transform":{"offset":[0,0],"scale":[1,1],"rotation":0}},"texCoord":0},"metallicFactor":0,"roughnessFactor":0.2},"name":"Veronica","emissiveFactor":[0,0,0],"extensions":{},"alphaMode":"OPAQUE","doubleSided":false},{"pbrMetallicRoughness":{"baseColorFactor":[0.7969165429079781,0,0,1],"baseColorTexture":{"index":7,"extensions":{"KHR_texture_transform":{"offset":[0,0],"scale":[1,1],"rotation":0}},"texCoord":0},"metallicFactor":0,"roughnessFactor":0.2},"name":"Light Glaze","emissiveFactor":[0,0,0],"extensions":{},"alphaMode":"OPAQUE","doubleSided":false},{"pbrMetallicRoughness":{"baseColorFactor":[0.7969165429079781,0,0,1],"baseColorTexture":{"index":8,"extensions":{"KHR_texture_transform":{"offset":[0,0],"scale":[1,1],"rotation":0}},"texCoord":0},"metallicFactor":0,"roughnessFactor":0.2},"name":"Amazonian","emissiveFactor":[0,0,0],"extensions":{},"alphaMode":"OPAQUE","doubleSided":false},{"pbrMetallicRoughness":{"baseColorFactor":[0.7969165429079781,0,0,1],"baseColorTexture":{"index":9,"extensions":{"KHR_texture_transform":{"offset":[0,0],"scale":[1,1],"rotation":0}},"texCoord":0},"metallicFactor":0,"roughnessFactor":0.2},"name":"Savoy","emissiveFactor":[0,0,0],"extensions":{},"alphaMode":"OPAQUE","doubleSided":false},{"pbrMetallicRoughness":{"baseColorFactor":[0.09868919754109445,0.023103556157921437,0.023103556157921437,1],"metallicRoughnessTexture":{"index":11,"extensions":{"KHR_texture_transform":{"offset":[0,0],"scale":[1,1],"rotation":0}},"texCoord":0},"metallicFactor":0,"roughnessFactor":1},"name":"Plastic Textured 1","normalTexture":{"index":10,"scale":1,"extensions":{"KHR_texture_transform":{"offset":[0,0],"scale":[1,1],"rotation":0}},"texCoord":0},"emissiveFactor":[0,0,0],"extensions":{},"alphaMode":"OPAQUE","doubleSided":false}],"textures":[{"sampler":0,"source":0},{"sampler":0,"source":1},{"sampler":0,"source":2},{"sampler":0,"source":3},{"sampler":0,"source":4},{"sampler":0,"source":5},{"sampler":0,"source":6},{"sampler":0,"source":7},{"sampler":0,"source":8},{"sampler":0,"source":9},{"sampler":0,"source":10},{"sampler":0,"source":11}],"images":[{"uri":"data:application/octet-stream;base64,","mimeType":"image/jpeg"},{"uri":"data:application/octet-stream;base64,","mimeType":"image/jpeg"},{"uri":"data:application/octet-stream;base64,","mimeType":"image/jpeg"},{"uri":"data:application/octet-stream;base64,","mimeType":"image/jpeg"},{"uri":"data:application/octet-stream;base64,","mimeType":"image/jpeg"},{"uri":"data:application/octet-stream;base64,","mimeType":"image/jpeg"},{"uri":"data:application/octet-stream;base64,","mimeType":"image/jpeg"},{"uri":"data:application/octet-stream;base64,","mimeType":"image/jpeg"},{"uri":"data:application/octet-stream;base64,","mimeType":"image/jpeg"},{"uri":"data:application/octet-stream;base64,","mimeType":"image/jpeg"},{"uri":"data:application/octet-stream;base64,","mimeType":"image/jpeg"},{"uri":"data:application/octet-stream;base64,","mimeType":"image/jpeg"}],"samplers":[{"wrapS":10497,"wrapT":10497}],"meshes":[{"primitives":[{"mode":4,"attributes":{"POSITION":1,"NORMAL":2,"TEXCOORD_0":3},"material":0,"indices":0}]},{"primitives":[{"mode":4,"attributes":{"POSITION":5,"NORMAL":6,"TEXCOORD_0":7},"material":1,"indices":4}]},{"primitives":[{"mode":4,"attributes":{"POSITION":9,"NORMAL":10,"TEXCOORD_0":11},"material":2,"indices":8}]},{"primitives":[{"mode":4,"attributes":{"POSITION":13,"NORMAL":14,"TEXCOORD_0":15},"material":3,"indices":12}]},{"primitives":[{"mode":4,"attributes":{"POSITION":17,"NORMAL":18,"TEXCOORD_0":19},"material":4,"indices":16}]},{"primitives":[{"mode":4,"attributes":{"POSITION":21,"NORMAL":22,"TEXCOORD_0":23},"material":5,"indices":20}]},{"primitives":[{"mode":4,"attributes":{"POSITION":25,"NORMAL":26,"TEXCOORD_0":27},"material":6,"indices":24}]},{"primitives":[{"mode":4,"attributes":{"POSITION":29,"NORMAL":30,"TEXCOORD_0":31},"material":7,"indices":28}]},{"primitives":[{"mode":4,"attributes":{"POSITION":33,"NORMAL":34,"TEXCOORD_0":35},"material":8,"indices":32}]},{"primitives":[{"mode":4,"attributes":{"POSITION":37,"NORMAL":38,"TEXCOORD_0":39},"material":9,"indices":36}]},{"primitives":[{"mode":4,"attributes":{"POSITION":41,"NORMAL":42,"TEXCOORD_0":43},"material":10,"indices":40}]},{"primitives":[{"mode":4,"attributes":{"POSITION":45,"NORMAL":46,"TEXCOORD_0":47},"material":11,"indices":44}]}],"accessors":[{"bufferView":0,"byteOffset":0,"componentType":5125,"count":36,"type":"SCALAR"},{"bufferView":1,"byteOffset":0,"componentType":5126,"count":24,"max":[50,58.5,100],"min":[-50,-58.5,0],"type":"VEC3"},{"bufferView":2,"byteOffset":0,"componentType":5126,"count":24,"type":"VEC3"},{"bufferView":3,"byteOffset":0,"componentType":5126,"count":24,"type":"VEC2"},{"bufferView":4,"byteOffset":0,"componentType":5125,"count":36,"type":"SCALAR"},{"bufferView":5,"byteOffset":0,"componentType":5126,"count":24,"max":[58.5,14.5,190.3402862548828],"min":[-58.5,-14.5,0],"type":"VEC3"},{"bufferView":6,"byteOffset":0,"componentType":5126,"count":24,"type":"VEC3"},{"bufferView":7,"byteOffset":0,"componentType":5126,"count":24,"type":"VEC2"},{"bufferView":8,"byteOffset":0,"componentType":5125,"count":36,"type":"SCALAR"},{"bufferView":9,"byteOffset":0,"componentType":5126,"count":24,"max":[58.5,13.5,297],"min":[-58.5,-13.5,0],"type":"VEC3"},{"bufferView":10,"byteOffset":0,"componentType":5126,"count":24,"type":"VEC3"},{"bufferView":11,"byteOffset":0,"componentType":5126,"count":24,"type":"VEC2"},{"bufferView":12,"byteOffset":0,"componentType":5125,"count":708,"type":"SCALAR"},{"bufferView":13,"byteOffset":0,"componentType":5126,"count":264,"max":[40.5,50,129.62123107910156],"min":[-40.5,-50,9.371347427368164],"type":"VEC3"},{"bufferView":14,"byteOffset":0,"componentType":5126,"count":264,"type":"VEC3"},{"bufferView":15,"byteOffset":0,"componentType":5126,"count":264,"type":"VEC2"},{"bufferView":16,"byteOffset":0,"componentType":5125,"count":36,"type":"SCALAR"},{"bufferView":17,"byteOffset":0,"componentType":5126,"count":24,"max":[15.11259937286377,-3.0777816772460938,28.393095016479492],"min":[-15.11259937286377,-20.28411102294922,0],"type":"VEC3"},{"bufferView":18,"byteOffset":0,"componentType":5126,"count":24,"type":"VEC3"},{"bufferView":19,"byteOffset":0,"componentType":5126,"count":24,"type":"VEC2"},{"bufferView":20,"byteOffset":0,"componentType":5125,"count":36,"type":"SCALAR"},{"bufferView":21,"byteOffset":0,"componentType":5126,"count":24,"max":[15.11259937286377,-3.0777816772460938,28.393095016479492],"min":[-15.11259937286377,-20.28411102294922,0],"type":"VEC3"},{"bufferView":22,"byteOffset":0,"componentType":5126,"count":24,"type":"VEC3"},{"bufferView":23,"byteOffset":0,"componentType":5126,"count":24,"type":"VEC2"},{"bufferView":24,"byteOffset":0,"componentType":5125,"count":36,"type":"SCALAR"},{"bufferView":25,"byteOffset":0,"componentType":5126,"count":24,"max":[15.11259937286377,-3.0777816772460938,28.393095016479492],"min":[-15.11259937286377,-20.28411102294922,0],"type":"VEC3"},{"bufferView":26,"byteOffset":0,"componentType":5126,"count":24,"type":"VEC3"},{"bufferView":27,"byteOffset":0,"componentType":5126,"count":24,"type":"VEC2"},{"bufferView":28,"byteOffset":0,"componentType":5125,"count":36,"type":"SCALAR"},{"bufferView":29,"byteOffset":0,"componentType":5126,"count":24,"max":[15.11259937286377,-3.0777816772460938,28.393095016479492],"min":[-15.11259937286377,-20.28411102294922,0],"type":"VEC3"},{"bufferView":30,"byteOffset":0,"componentType":5126,"count":24,"type":"VEC3"},{"bufferView":31,"byteOffset":0,"componentType":5126,"count":24,"type":"VEC2"},{"bufferView":32,"byteOffset":0,"componentType":5125,"count":36,"type":"SCALAR"},{"bufferView":33,"byteOffset":0,"componentType":5126,"count":24,"max":[15.11259937286377,-3.0777816772460938,28.393095016479492],"min":[-15.11259937286377,-20.28411102294922,0],"type":"VEC3"},{"bufferView":34,"byteOffset":0,"componentType":5126,"count":24,"type":"VEC3"},{"bufferView":35,"byteOffset":0,"componentType":5126,"count":24,"type":"VEC2"},{"bufferView":36,"byteOffset":0,"componentType":5125,"count":36,"type":"SCALAR"},{"bufferView":37,"byteOffset":0,"componentType":5126,"count":24,"max":[15.11259937286377,-3.0777816772460938,28.393095016479492],"min":[-15.11259937286377,-20.28411102294922,0],"type":"VEC3"},{"bufferView":38,"byteOffset":0,"componentType":5126,"count":24,"type":"VEC3"},{"bufferView":39,"byteOffset":0,"componentType":5126,"count":24,"type":"VEC2"},{"bufferView":40,"byteOffset":0,"componentType":5125,"count":36,"type":"SCALAR"},{"bufferView":41,"byteOffset":0,"componentType":5126,"count":24,"max":[15,26,12],"min":[-15,-26,0],"type":"VEC3"},{"bufferView":42,"byteOffset":0,"componentType":5126,"count":24,"type":"VEC3"},{"bufferView":43,"byteOffset":0,"componentType":5126,"count":24,"type":"VEC2"},{"bufferView":44,"byteOffset":0,"componentType":5125,"count":84,"type":"SCALAR"},{"bufferView":45,"byteOffset":0,"componentType":5126,"count":48,"max":[50,21,47],"min":[-50,-21,0],"type":"VEC3"},{"bufferView":46,"byteOffset":0,"componentType":5126,"count":48,"type":"VEC3"},{"bufferView":47,"byteOffset":0,"componentType":5126,"count":48,"type":"VEC2"}],"bufferViews":[{"buffer":0,"byteOffset":0,"byteLength":144,"target":34963},{"buffer":0,"byteOffset":144,"byteLength":288,"target":34962},{"buffer":0,"byteOffset":432,"byteLength":288,"target":34962},{"buffer":0,"byteOffset":720,"byteLength":192,"target":34962},{"buffer":0,"byteOffset":912,"byteLength":144,"target":34963},{"buffer":0,"byteOffset":1056,"byteLength":288,"target":34962},{"buffer":0,"byteOffset":1344,"byteLength":288,"target":34962},{"buffer":0,"byteOffset":1632,"byteLength":192,"target":34962},{"buffer":0,"byteOffset":1824,"byteLength":144,"target":34963},{"buffer":0,"byteOffset":1968,"byteLength":288,"target":34962},{"buffer":0,"byteOffset":2256,"byteLength":288,"target":34962},{"buffer":0,"byteOffset":2544,"byteLength":192,"target":34962},{"buffer":0,"byteOffset":2736,"byteLength":2832,"target":34963},{"buffer":0,"byteOffset":5568,"byteLength":3168,"target":34962},{"buffer":0,"byteOffset":8736,"byteLength":3168,"target":34962},{"buffer":0,"byteOffset":11904,"byteLength":2112,"target":34962},{"buffer":0,"byteOffset":14016,"byteLength":144,"target":34963},{"buffer":0,"byteOffset":14160,"byteLength":288,"target":34962},{"buffer":0,"byteOffset":14448,"byteLength":288,"target":34962},{"buffer":0,"byteOffset":14736,"byteLength":192,"target":34962},{"buffer":0,"byteOffset":14928,"byteLength":144,"target":34963},{"buffer":0,"byteOffset":15072,"byteLength":288,"target":34962},{"buffer":0,"byteOffset":15360,"byteLength":288,"target":34962},{"buffer":0,"byteOffset":15648,"byteLength":192,"target":34962},{"buffer":0,"byteOffset":15840,"byteLength":144,"target":34963},{"buffer":0,"byteOffset":15984,"byteLength":288,"target":34962},{"buffer":0,"byteOffset":16272,"byteLength":288,"target":34962},{"buffer":0,"byteOffset":16560,"byteLength":192,"target":34962},{"buffer":0,"byteOffset":16752,"byteLength":144,"target":34963},{"buffer":0,"byteOffset":16896,"byteLength":288,"target":34962},{"buffer":0,"byteOffset":17184,"byteLength":288,"target":34962},{"buffer":0,"byteOffset":17472,"byteLength":192,"target":34962},{"buffer":0,"byteOffset":17664,"byteLength":144,"target":34963},{"buffer":0,"byteOffset":17808,"byteLength":288,"target":34962},{"buffer":0,"byteOffset":18096,"byteLength":288,"target":34962},{"buffer":0,"byteOffset":18384,"byteLength":192,"target":34962},{"buffer":0,"byteOffset":18576,"byteLength":144,"target":34963},{"buffer":0,"byteOffset":18720,"byteLength":288,"target":34962},{"buffer":0,"byteOffset":19008,"byteLength":288,"target":34962},{"buffer":0,"byteOffset":19296,"byteLength":192,"target":34962},{"buffer":0,"byteOffset":19488,"byteLength":144,"target":34963},{"buffer":0,"byteOffset":19632,"byteLength":288,"target":34962},{"buffer":0,"byteOffset":19920,"byteLength":288,"target":34962},{"buffer":0,"byteOffset":20208,"byteLength":192,"target":34962},{"buffer":0,"byteOffset":20400,"byteLength":336,"target":34963},{"buffer":0,"byteOffset":20736,"byteLength":576,"target":34962},{"buffer":0,"byteOffset":21312,"byteLength":576,"target":34962},{"buffer":0,"byteOffset":21888,"byteLength":384,"target":34962}],"scene":0,"scenes":[{"nodes":[0],"name":"Project Name"}],"extensionsUsed":["KHR_texture_transform"],"buffers":[{"byteLength":22272,"uri":"data:application/octet-stream;base64,"}]}